P3
2 2
255
223 227 223
253 253 253
185 185 185
143 69 69
