P3
2 2
255
197 150 150
166 166 166
222 222 222
185 185 185
